# xmcd
#
# Track frame offsets: 
#        150
#        9473
#        23238
#        37273
#        49360
#        69563
#        83215
#        97450
#        111330
#        128308
#        143325
#        160033
#        191250
#
# Disc length: 2595 seconds
#
# Revision: 1
# Processed by: cddbd v1.5PL3 Copyright (c) Steve Scherf et al.
# Submitted via: ExactAudioCopy v0.95a3
#
DISCID=aa0a210d
DTITLE=Aaron Tippin - A December To Remember
DYEAR=2001
DGENRE=Country
TTITLE0=Jingle Bell Rock
TTITLE1=Blue Christmas
TTITLE2=It's A Good Thing Santa Ain't Single
TTITLE3=Christmas Is The Warmest Time Of The Year
TTITLE4=He Said That He Was Jesus
TTITLE5=Away In The Manger
TTITLE6=The Year That Santa Never Came
TTITLE7=Run Rudolph
TTITLE8=It's Way Too Close To Christmas To Be This Far From You
TTITLE9=Mama's Gettin' Ready For Christmas
TTITLE10=A December To Remember
TTITLE11=Silent Night
TTITLE12=Data Track 
EXTD=
EXTT0=
EXTT1=
EXTT2=
EXTT3=
EXTT4=
EXTT5=
EXTT6=
EXTT7=
EXTT8=
EXTT9=
EXTT10=
EXTT11=
EXTT12=
PLAYORDER=
